emg_normalized.mot
version=1
nRows=65
nColumns=17
in_degrees=yes
endheader
time	VM	VL	RF	GRA	TA	ADDLONG	SEMIMEM	BFLH	GM	GL	TFL	GLUTMAX	GLUTMED	PIRI	OBTINT	QF
3.517500	0.352092	0.567944	0.364321	0.585099	0.843193	0.238380	0.316774	0.521623	0.339606	0.243454	0.156185	0.724261	0.797419	0.875851	0.621282	0.124105
3.518000	0.354748	0.570416	0.365669	0.581649	0.835940	0.244743	0.314890	0.520577	0.344736	0.246281	0.157983	0.722823	0.800797	0.877459	0.629532	0.125714
3.518500	0.357370	0.572831	0.367012	0.578264	0.828569	0.251190	0.313058	0.519583	0.349905	0.249109	0.159810	0.721284	0.804182	0.878977	0.637780	0.127346
3.519000	0.359954	0.575189	0.368343	0.574943	0.821083	0.257721	0.311280	0.518641	0.355112	0.251935	0.161665	0.719646	0.807570	0.880401	0.646021	0.129006
3.519500	0.362500	0.577490	0.369670	0.571684	0.813486	0.264336	0.309558	0.517753	0.360355	0.254762	0.163552	0.717913	0.810961	0.881739	0.654247	0.130690
3.520000	0.365005	0.579732	0.370989	0.568491	0.805781	0.271033	0.307888	0.516914	0.365633	0.257587	0.165467	0.716087	0.814346	0.882983	0.662453	0.132399
3.520500	0.367467	0.581918	0.372299	0.565362	0.797972	0.277811	0.306271	0.516126	0.370946	0.260412	0.167414	0.714168	0.817731	0.884130	0.670633	0.134134
3.521000	0.369883	0.584043	0.373601	0.562298	0.790067	0.284670	0.304706	0.515387	0.376292	0.263235	0.169392	0.712160	0.821105	0.885182	0.678780	0.135894
3.521500	0.372257	0.586111	0.374900	0.559297	0.782066	0.291609	0.303193	0.514698	0.381670	0.266057	0.171402	0.710067	0.824469	0.886137	0.686888	0.137678
3.522000	0.374584	0.588117	0.376186	0.556358	0.773977	0.298627	0.301731	0.514059	0.387079	0.268875	0.173444	0.707886	0.827820	0.886994	0.694948	0.139490
3.522500	0.376862	0.590064	0.377463	0.553486	0.765807	0.305720	0.300321	0.513468	0.392517	0.271694	0.175518	0.705622	0.831157	0.887749	0.702955	0.141327
3.523000	0.379093	0.591950	0.378737	0.550675	0.757561	0.312889	0.298962	0.512923	0.397983	0.274507	0.177625	0.703276	0.834474	0.888402	0.710902	0.143191
3.523500	0.381275	0.593774	0.379998	0.547932	0.749245	0.320133	0.297653	0.512426	0.403477	0.277321	0.179766	0.700848	0.837770	0.888954	0.718780	0.145079
3.524000	0.383408	0.595535	0.381256	0.545249	0.740865	0.327448	0.296394	0.511972	0.408997	0.280130	0.181940	0.698340	0.841040	0.889400	0.726583	0.146994
3.524500	0.385494	0.597233	0.382505	0.542628	0.732426	0.334835	0.295186	0.511564	0.414542	0.282935	0.184148	0.695754	0.844282	0.889744	0.734302	0.148935
3.525000	0.387530	0.598869	0.383742	0.540071	0.723936	0.342291	0.294026	0.511198	0.420110	0.285738	0.186389	0.693090	0.847493	0.889983	0.741931	0.150901
3.525500	0.389517	0.600440	0.384974	0.537578	0.715400	0.349814	0.292917	0.510873	0.425699	0.288537	0.188666	0.690347	0.850674	0.890116	0.749463	0.152895
3.526000	0.391456	0.601946	0.386199	0.535144	0.706822	0.357402	0.291857	0.510590	0.431311	0.291333	0.190976	0.687529	0.853821	0.890147	0.756889	0.154913
3.526500	0.393349	0.603388	0.387419	0.532771	0.698210	0.365054	0.290845	0.510345	0.436941	0.294125	0.193321	0.684634	0.856928	0.890073	0.764205	0.156958
3.527000	0.395194	0.604763	0.388627	0.530459	0.689568	0.372766	0.289880	0.510138	0.442588	0.296914	0.195700	0.681664	0.859996	0.889893	0.771403	0.159028
3.527500	0.396994	0.606074	0.389827	0.528206	0.680901	0.380537	0.288964	0.509968	0.448254	0.299699	0.198114	0.678618	0.863021	0.889608	0.778477	0.161124
3.528000	0.398746	0.607316	0.391023	0.526012	0.672214	0.388365	0.288093	0.509833	0.453936	0.302479	0.200561	0.675499	0.866002	0.889224	0.785424	0.163245
3.528500	0.400453	0.608493	0.392211	0.523873	0.663514	0.396246	0.287269	0.509731	0.459631	0.305255	0.203042	0.672305	0.868935	0.888735	0.792237	0.165390
3.529000	0.402115	0.609602	0.393386	0.521796	0.654805	0.404180	0.286492	0.509661	0.465342	0.308026	0.205557	0.669040	0.871821	0.888144	0.798913	0.167561
3.529500	0.403732	0.610643	0.394557	0.519774	0.646092	0.412160	0.285759	0.509620	0.471066	0.310793	0.208106	0.665700	0.874655	0.887456	0.805448	0.169757
3.530000	0.405306	0.611618	0.395720	0.517808	0.637379	0.420188	0.285072	0.509610	0.476802	0.313553	0.210688	0.662290	0.877439	0.886661	0.811839	0.171979
3.530500	0.406836	0.612527	0.396875	0.515898	0.628672	0.428257	0.284430	0.509624	0.482550	0.316307	0.213302	0.658810	0.880165	0.885769	0.818084	0.174225
3.531000	0.408325	0.613368	0.398022	0.514044	0.619974	0.436367	0.283831	0.509665	0.488308	0.319056	0.215949	0.655258	0.882837	0.884775	0.824178	0.176495
3.531500	0.409771	0.614142	0.399156	0.512243	0.611292	0.444511	0.283277	0.509728	0.494078	0.321797	0.218628	0.651638	0.885448	0.883680	0.830119	0.178789
3.532000	0.411175	0.614850	0.400287	0.510497	0.602628	0.452690	0.282765	0.509812	0.499856	0.324529	0.221338	0.647948	0.888001	0.882486	0.835905	0.181107
3.532500	0.412539	0.615491	0.401405	0.508804	0.593986	0.460899	0.282298	0.509915	0.505642	0.327254	0.224080	0.644189	0.890486	0.881195	0.841531	0.183449
3.533000	0.413861	0.616066	0.402515	0.507165	0.585373	0.469133	0.281875	0.510037	0.511436	0.329970	0.226850	0.640363	0.892910	0.879802	0.846996	0.185815
3.533500	0.415143	0.616573	0.403616	0.505575	0.576790	0.477389	0.281491	0.510173	0.517235	0.332679	0.229651	0.636470	0.895262	0.878316	0.852295	0.188204
3.534000	0.416384	0.617014	0.404706	0.504036	0.568243	0.485664	0.281152	0.510326	0.523040	0.335377	0.232480	0.632509	0.897547	0.876731	0.857425	0.190616
3.534500	0.417584	0.617391	0.405787	0.502547	0.559734	0.493952	0.280854	0.510490	0.528848	0.338065	0.235336	0.628483	0.899754	0.875048	0.862382	0.193050
3.535000	0.418744	0.617701	0.406860	0.501106	0.551269	0.502252	0.280598	0.510666	0.534662	0.340742	0.238219	0.624391	0.901885	0.873272	0.867161	0.195508
3.535500	0.419864	0.617946	0.407916	0.499711	0.542849	0.510556	0.280382	0.510854	0.540476	0.343409	0.241127	0.620234	0.903939	0.871402	0.871760	0.197987
3.536000	0.420941	0.618127	0.408969	0.498365	0.534479	0.518863	0.280207	0.511051	0.546291	0.346062	0.244060	0.616015	0.905908	0.869442	0.876172	0.200489
3.536500	0.421978	0.618245	0.410005	0.497062	0.526162	0.527165	0.280071	0.511259	0.552107	0.348702	0.247016	0.611732	0.907793	0.867387	0.880397	0.203013
3.537000	0.422973	0.618300	0.411033	0.495805	0.517901	0.535460	0.279976	0.511474	0.557921	0.351330	0.249994	0.607389	0.909588	0.865239	0.884426	0.205556
3.537500	0.423926	0.618293	0.412044	0.494592	0.509698	0.543740	0.279919	0.511697	0.563735	0.353943	0.252993	0.602983	0.911289	0.863005	0.888259	0.208122
3.538000	0.424837	0.618222	0.413044	0.493421	0.501558	0.552004	0.279901	0.511926	0.569547	0.356543	0.256012	0.598518	0.912898	0.860681	0.891889	0.210708
3.538500	0.425705	0.618089	0.414027	0.492291	0.493481	0.560244	0.279919	0.512162	0.575357	0.359126	0.259049	0.593994	0.914402	0.858267	0.895312	0.213315
3.539000	0.426528	0.617896	0.414997	0.491204	0.485471	0.568454	0.279974	0.512403	0.581163	0.361694	0.262102	0.589412	0.915804	0.855767	0.898525	0.215941
3.539500	0.427307	0.617640	0.415951	0.490155	0.477532	0.576630	0.280065	0.512649	0.586966	0.364247	0.265170	0.584774	0.917098	0.853180	0.901521	0.218585
3.540000	0.428040	0.617324	0.416889	0.489149	0.469663	0.584768	0.280193	0.512899	0.592764	0.366784	0.268251	0.580083	0.918276	0.850508	0.904298	0.221247
3.540500	0.428728	0.616949	0.417811	0.488181	0.461870	0.592857	0.280353	0.513152	0.598556	0.369303	0.271344	0.575336	0.919335	0.847754	0.906848	0.223929
3.541000	0.429369	0.616514	0.418712	0.487250	0.454152	0.600896	0.280548	0.513406	0.604342	0.371802	0.274447	0.570541	0.920275	0.844917	0.909168	0.226626
3.541500	0.429960	0.616019	0.419596	0.486358	0.446513	0.608876	0.280774	0.513660	0.610120	0.374284	0.277558	0.565696	0.921083	0.841998	0.911253	0.229340
3.542000	0.430504	0.615469	0.420460	0.485502	0.438954	0.616792	0.281033	0.513916	0.615888	0.376746	0.280674	0.560804	0.921762	0.838997	0.913096	0.232068
3.542500	0.430996	0.614861	0.421304	0.484685	0.431477	0.624638	0.281321	0.514174	0.621645	0.379186	0.283796	0.555866	0.922302	0.835922	0.914692	0.234812
3.543000	0.431438	0.614196	0.422131	0.483901	0.424084	0.632404	0.281637	0.514430	0.627390	0.381606	0.286919	0.550885	0.922696	0.832768	0.916035	0.237570
3.543500	0.431830	0.613478	0.422934	0.483154	0.416776	0.640088	0.281983	0.514687	0.633122	0.384002	0.290044	0.545861	0.922944	0.829536	0.917123	0.240341
3.544000	0.432167	0.612702	0.423712	0.482437	0.409554	0.647678	0.282356	0.514943	0.638840	0.386375	0.293166	0.540798	0.923039	0.826230	0.917949	0.243122
3.544500	0.432453	0.611872	0.424474	0.481757	0.402420	0.655172	0.282757	0.515197	0.644545	0.388724	0.296285	0.535697	0.922978	0.822849	0.918509	0.245916
3.545000	0.432684	0.610988	0.425207	0.481107	0.395376	0.662560	0.283182	0.515447	0.650231	0.391048	0.299398	0.530561	0.922757	0.819398	0.918803	0.248720
3.545500	0.432863	0.610049	0.425919	0.480491	0.388423	0.669834	0.283632	0.515696	0.655903	0.393345	0.302503	0.525391	0.922370	0.815873	0.918827	0.251533
3.546000	0.432987	0.609056	0.426607	0.479905	0.381560	0.676989	0.284106	0.515940	0.661555	0.395614	0.305598	0.520188	0.921813	0.812273	0.918581	0.254354
3.546500	0.433054	0.608009	0.427267	0.479350	0.374789	0.684015	0.284602	0.516181	0.667189	0.397855	0.308679	0.514954	0.921094	0.808607	0.918066	0.257183
3.547000	0.433068	0.606907	0.427902	0.478826	0.368112	0.690906	0.285120	0.516413	0.672803	0.400066	0.311746	0.509693	0.920201	0.804874	0.917281	0.260017
3.547500	0.433027	0.605749	0.428508	0.478330	0.361529	0.697652	0.285658	0.516640	0.678395	0.402247	0.314796	0.504403	0.919138	0.801075	0.916230	0.262858
3.548000	0.432929	0.604536	0.429085	0.477861	0.355040	0.704247	0.286214	0.516859	0.683966	0.404397	0.317825	0.499088	0.917909	0.797209	0.914915	0.265703
3.548500	0.432778	0.603266	0.429634	0.477421	0.348646	0.710681	0.286789	0.517068	0.689512	0.406514	0.320833	0.493749	0.916511	0.793285	0.913337	0.268550
3.549000	0.432572	0.601938	0.430150	0.477005	0.342348	0.716947	0.287379	0.517268	0.695034	0.408600	0.323815	0.488387	0.914942	0.789298	0.911502	0.271400
3.549500	0.432313	0.600551	0.430629	0.476618	0.336144	0.723035	0.287983	0.517458	0.700530	0.410651	0.326772	0.483004	0.913204	0.785256	0.909412	0.274250
